<svg width="5" height="5" viewBox="0 0 5 5" fill="none" xmlns="http://www.w3.org/2000/svg">
<path d="M1.56306 4.76759C1.13807 4.76759 0.786126 4.65698 0.506686 4.43523C0.227245 4.21242 0.0875244 3.88164 0.0875244 3.44237C0.0875244 3.11106 0.164794 2.85067 0.320392 2.6612C0.477048 2.47226 0.682395 2.33413 0.936432 2.24627C1.19047 2.15736 1.46409 2.09967 1.75782 2.07268C2.14311 2.03458 2.41831 1.99435 2.58344 1.95202C2.74962 1.90968 2.83324 1.81653 2.83324 1.67257V1.65564C2.83324 1.47252 2.77502 1.33068 2.65965 1.23013C2.54533 1.1301 2.38285 1.07982 2.17275 1.07982C1.95099 1.07982 1.77475 1.12851 1.6435 1.22589C1.51225 1.32222 1.42545 1.44394 1.38311 1.59213L0.244181 1.49898C0.32886 1.09411 0.538969 0.77286 0.875039 0.535759C1.21217 0.298658 1.64668 0.180107 2.1791 0.180107C2.50934 0.180107 2.81736 0.232502 3.10421 0.336763C3.39212 0.441553 3.62393 0.604561 3.8007 0.825785C3.97694 1.04595 4.06532 1.3328 4.06532 1.68528V4.68291H2.89675V4.06687H2.86288C2.75385 4.27328 2.59191 4.44158 2.37597 4.57283C2.1611 4.7025 1.89013 4.76759 1.56306 4.76759ZM1.91659 3.91657C2.18598 3.91657 2.40773 3.83824 2.58132 3.68158C2.75491 3.52387 2.84171 3.32805 2.84171 3.09518V2.6231C2.79355 2.65591 2.71892 2.68449 2.61731 2.70989C2.5157 2.7353 2.40773 2.75752 2.29341 2.77552C2.1791 2.79404 2.07642 2.80939 1.98645 2.82209C1.77052 2.85332 1.59587 2.91418 1.46356 3.00415C1.33072 3.09465 1.26456 3.22643 1.26456 3.40003C1.26456 3.57097 1.32596 3.70011 1.44874 3.78743C1.57152 3.8737 1.72712 3.91657 1.91659 3.91657Z" fill="white"/>
</svg>
