<svg width="5" height="5" viewBox="0 0 5 5" fill="none" xmlns="http://www.w3.org/2000/svg">
<path d="M2.78254 4.76972C2.32792 4.76972 1.93575 4.67658 1.6055 4.49028C1.27525 4.30399 1.02121 4.04043 0.843388 3.69854C0.66662 3.35559 0.578766 2.95018 0.578766 2.48127C0.578766 2.02401 0.66662 1.62337 0.843388 1.27883C1.02121 0.933236 1.27155 0.663851 1.59491 0.470148C1.91775 0.276974 2.29775 0.180122 2.73385 0.180122C3.12443 0.180122 3.47743 0.263743 3.79233 0.429925C4.10829 0.59505 4.35863 0.845911 4.54386 1.18145C4.73015 1.51593 4.8233 1.93457 4.8233 2.43682V2.77553H1.79603V2.77977C1.79603 3.1116 1.886 3.37252 2.067 3.56305C2.24906 3.75358 2.49463 3.84884 2.80371 3.84884C3.00958 3.84884 3.18741 3.80597 3.33718 3.71971C3.48802 3.63238 3.5944 3.50377 3.65685 3.33442L4.79578 3.41063C4.70951 3.82291 4.48988 4.15263 4.1374 4.39925C3.7844 4.64641 3.33295 4.76972 2.78254 4.76972ZM1.79603 2.01131H3.6632C3.66002 1.74774 3.57482 1.53022 3.40704 1.35928C3.23875 1.18727 3.0207 1.10101 2.7529 1.10101C2.47875 1.10101 2.25435 1.18992 2.0797 1.36775C1.90452 1.54451 1.80979 1.75886 1.79603 2.01131Z" fill="white"/>
</svg>
