<svg width="8" height="5" viewBox="0 0 8 5" fill="none" xmlns="http://www.w3.org/2000/svg">
<path d="M0.584412 4.68293V0.239398H1.75933V1.02268H1.81226C1.9054 0.760173 2.05994 0.554298 2.27587 0.404522C2.49286 0.255275 2.75114 0.180122 3.05069 0.180122C3.35553 0.180122 3.61433 0.256333 3.82762 0.408756C4.04196 0.560119 4.18539 0.764407 4.25736 1.02268H4.30394C4.39391 0.768641 4.5585 0.564883 4.79719 0.410873C5.03535 0.257392 5.31797 0.180122 5.64398 0.180122C6.05732 0.180122 6.39392 0.312433 6.65378 0.575997C6.91311 0.838502 7.0433 1.21109 7.0433 1.69376V4.68293H5.81334V1.93721C5.81334 1.69058 5.74771 1.50535 5.61646 1.38256C5.48521 1.25872 5.32114 1.19627 5.12532 1.19627C4.90092 1.19627 4.72574 1.26772 4.60031 1.41008C4.47594 1.55298 4.41402 1.73927 4.41402 1.96897V4.68293H3.21793V1.91181C3.21793 1.69323 3.15548 1.51964 3.03164 1.39103C2.90726 1.26137 2.74373 1.19627 2.5405 1.19627C2.33568 1.19627 2.1642 1.27142 2.02607 1.42067C1.88741 1.57045 1.81861 1.76891 1.81861 2.01554V4.68293H0.584412Z" fill="white"/>
</svg>
