<svg width="5" height="5" viewBox="0 0 5 5" fill="none" xmlns="http://www.w3.org/2000/svg">
<path d="M1.24872 2.11292V4.68293H0.0145264V0.239398H1.18945V1.02268H1.24237C1.3424 0.764407 1.50752 0.560119 1.73774 0.408756C1.96902 0.256333 2.24899 0.180122 2.57818 0.180122C3.04074 0.180122 3.41227 0.329898 3.69171 0.628921C3.97221 0.926885 4.11299 1.33493 4.11299 1.85253V4.68293H2.88091V2.0727C2.88197 1.80067 2.81211 1.58791 2.67133 1.43549C2.53002 1.28201 2.33579 1.20474 2.08916 1.20474C1.84042 1.20474 1.63878 1.28465 1.48371 1.44396C1.32811 1.60379 1.24978 1.8266 1.24872 2.11292Z" fill="white"/>
</svg>
