<svg width="6" height="5" viewBox="0 0 6 5" fill="none" xmlns="http://www.w3.org/2000/svg">
<path d="M3.02479 4.76971C2.5744 4.76971 2.18541 4.67392 1.85833 4.4818C1.53232 4.29021 1.2804 4.02189 1.10257 3.67735C0.925806 3.33334 0.837952 2.93323 0.837952 2.47703C0.837952 2.0187 0.925806 1.617 1.10257 1.27247C1.2804 0.928458 1.53232 0.660131 1.85833 0.468016C2.18541 0.276429 2.5744 0.180107 3.02479 0.180107C3.47359 0.180107 3.86152 0.276429 4.18912 0.468016C4.5162 0.660131 4.76812 0.928458 4.94488 1.27247C5.12271 1.617 5.21162 2.0187 5.21162 2.47703C5.21162 2.93323 5.12271 3.33334 4.94488 3.67735C4.76812 4.02189 4.5162 4.29021 4.18912 4.4818C3.86152 4.67392 3.47359 4.76971 3.02479 4.76971ZM3.03114 3.81495C3.33598 3.81495 3.56673 3.68794 3.72339 3.4339C3.88004 3.1788 3.95837 2.85702 3.95837 2.46856C3.95837 2.08221 3.88004 1.76096 3.72339 1.50533C3.56673 1.24865 3.33598 1.12004 3.03114 1.12004C2.72047 1.12004 2.48549 1.24865 2.32618 1.50533C2.16794 1.76096 2.08908 2.08221 2.08908 2.46856C2.08908 2.85702 2.16794 3.1788 2.32618 3.4339C2.48549 3.68794 2.72047 3.81495 3.03114 3.81495Z" fill="white"/>
</svg>
