<svg width="5" height="5" viewBox="0 0 5 5" fill="none" xmlns="http://www.w3.org/2000/svg">
<path d="M4.3248 1.50533L3.19645 1.57519C3.16523 1.43283 3.0869 1.31057 2.96147 1.20896C2.8371 1.10628 2.66774 1.05442 2.45339 1.05442C2.26287 1.05442 2.10092 1.09464 1.96861 1.17509C1.83577 1.25447 1.77067 1.36085 1.77384 1.49475C1.77067 1.6006 1.81248 1.69057 1.89875 1.7636C1.98448 1.83717 2.13056 1.89592 2.33696 1.93931L3.14141 2.10232C3.99667 2.2775 4.42483 2.67814 4.42641 3.30476C4.42641 3.59691 4.34068 3.85306 4.17026 4.07322C3.99932 4.29233 3.76486 4.46275 3.46743 4.58553C3.17105 4.70832 2.83074 4.76971 2.44704 4.76971C1.85852 4.76971 1.38908 4.64692 1.03925 4.40136C0.690483 4.15473 0.487253 3.81919 0.429565 3.39579L1.64259 3.33228C1.6807 3.51328 1.76961 3.64983 1.90933 3.74298C2.05011 3.83507 2.23005 3.88058 2.44916 3.88058C2.66615 3.88058 2.8408 3.83824 2.97205 3.75356C3.10436 3.66888 3.17158 3.56092 3.17317 3.42966C3.16734 3.2095 2.97735 3.06237 2.6037 2.98722L1.83312 2.83479C0.973628 2.66279 0.544941 2.23939 0.548116 1.56461C0.546528 1.13592 0.718003 0.797735 1.06254 0.550578C1.40655 0.30395 1.86329 0.180107 2.43222 0.180107C2.99375 0.180107 3.4362 0.298658 3.75957 0.535759C4.08241 0.77286 4.27082 1.09623 4.3248 1.50533Z" fill="white"/>
</svg>
