<svg width="14" height="13" viewBox="0 0 14 13" fill="none" xmlns="http://www.w3.org/2000/svg">
<path d="M6.49369 0.955101C6.657 0.452494 7.36806 0.452494 7.53136 0.955102L8.60477 4.25872C8.67781 4.48349 8.88727 4.63567 9.12361 4.63567L12.5972 4.63567C13.1257 4.63567 13.3454 5.31193 12.9179 5.62256L10.1077 7.6643C9.91646 7.80322 9.83646 8.04946 9.90949 8.27423L10.9829 11.5778C11.1462 12.0805 10.571 12.4984 10.1434 12.1878L7.33319 10.146C7.14198 10.0071 6.88307 10.0071 6.69187 10.146L3.88165 12.1878C3.4541 12.4984 2.87885 12.0805 3.04215 11.5778L4.11556 8.27423C4.1886 8.04946 4.10859 7.80322 3.91739 7.6643L1.10716 5.62256C0.679621 5.31193 0.899349 4.63567 1.42782 4.63567L4.90145 4.63567C5.13779 4.63567 5.34725 4.48349 5.42028 4.25872L6.49369 0.955101Z" fill="white"/>
</svg>
