<svg width="4" height="6" viewBox="0 0 4 6" fill="none" xmlns="http://www.w3.org/2000/svg">
<path d="M3.56807 1.23949V2.16461H2.73186V4.31757C2.73186 4.48693 2.76997 4.60231 2.84618 4.66264C2.92345 4.72191 3.02453 4.75155 3.14891 4.75155C3.20659 4.75155 3.26428 4.74679 3.3225 4.73673C3.38019 4.72562 3.42464 4.71715 3.45587 4.71133L3.64851 5.62798C3.58765 5.64809 3.50085 5.67032 3.38812 5.69572C3.27645 5.72218 3.14097 5.73859 2.98167 5.74441C2.53287 5.76241 2.17298 5.66556 1.90201 5.45227C1.63104 5.23951 1.49661 4.91456 1.49978 4.47846V2.16461H0.892212V1.23949H1.49978V0.174652H2.73186V1.23949H3.56807Z" fill="white"/>
</svg>
