<svg width="13" height="14" viewBox="0 0 13 14" fill="none" xmlns="http://www.w3.org/2000/svg">
<path d="M6.56912 0.52211C3.11845 0.52211 0.321396 3.31969 0.321396 6.76983C0.321396 10.2205 3.11845 13.0176 6.56912 13.0176C10.0193 13.0176 12.8168 10.22 12.8168 6.76983C12.8168 3.31969 10.0193 0.52211 6.56912 0.52211ZM5.03855 8.44754C5.03855 8.78519 4.76493 9.05828 4.4278 9.05828C4.09014 9.05828 3.81705 8.78519 3.81705 8.44754V5.84366C3.81705 5.506 4.09014 5.23238 4.4278 5.23238C4.76493 5.23238 5.03855 5.506 5.03855 5.84366V8.44754ZM9.35294 8.40361C9.35294 8.88099 9.07403 9.05193 8.59665 9.05193H6.40029C5.92291 9.05193 5.53604 8.66506 5.53604 8.18768V6.0273C5.53604 6.0273 5.49317 5.66795 5.89116 5.33029C6.11609 5.13923 6.45004 4.77458 6.68344 4.33214C7.14705 3.45306 7.42438 3.19691 7.63554 3.26571C8.41777 3.51922 8.02666 4.67879 7.77421 5.16305H8.48869C8.96554 5.16305 9.35294 5.54993 9.35294 6.0273V8.40361Z" fill="white"/>
</svg>
